<?xml version="1.0" encoding="utf-8"?>
<!-- Generator: Adobe Illustrator 16.0.0, SVG Export Plug-In . SVG Version: 6.00 Build 0)  -->
<!DOCTYPE svg PUBLIC "-//W3C//DTD SVG 1.1//EN" "http://www.w3.org/Graphics/SVG/1.1/DTD/svg11.dtd">
<svg version="1.1" id="Ebene_1" xmlns="http://www.w3.org/2000/svg" xmlns:xlink="http://www.w3.org/1999/xlink" x="0px" y="0px"
	 width="867px" height="595px" viewBox="0 0 867 595" enable-background="new 0 0 867 595" xml:space="preserve">
<line opacity="0.3" fill="none" stroke="#000000" stroke-width="0.25" stroke-miterlimit="10" x1="607.5" y1="480" x2="307.5" y2="480"/>
<line opacity="0.3" fill="none" stroke="#000000" stroke-width="0.25" stroke-miterlimit="10" x1="607.5" y1="460" x2="307.5" y2="460"/>
<line opacity="0.3" fill="none" stroke="#000000" stroke-width="0.25" stroke-miterlimit="10" x1="607.5" y1="440" x2="307.5" y2="440"/>
<line opacity="0.3" fill="none" stroke="#000000" stroke-width="0.25" stroke-miterlimit="10" x1="607.5" y1="420" x2="307.5" y2="420"/>
<line opacity="0.3" fill="none" stroke="#000000" stroke-width="0.25" stroke-miterlimit="10" x1="607.5" y1="400" x2="307.5" y2="400"/>
<line opacity="0.3" fill="none" stroke="#000000" stroke-width="0.25" stroke-miterlimit="10" x1="607.5" y1="380" x2="307.5" y2="380"/>
<line opacity="0.3" fill="none" stroke="#000000" stroke-width="0.25" stroke-miterlimit="10" x1="607.5" y1="360" x2="307.5" y2="360"/>
<line opacity="0.3" fill="none" stroke="#000000" stroke-width="0.25" stroke-miterlimit="10" x1="607.5" y1="340" x2="307.5" y2="340"/>
<line opacity="0.3" fill="none" stroke="#000000" stroke-width="0.25" stroke-miterlimit="10" x1="607.5" y1="320" x2="307.5" y2="320"/>
<line opacity="0.3" fill="none" stroke="#000000" stroke-width="0.25" stroke-miterlimit="10" x1="607.5" y1="300" x2="307.5" y2="300"/>
<line opacity="0.3" fill="none" stroke="#000000" stroke-width="0.25" stroke-miterlimit="10" x1="607.5" y1="280" x2="307.5" y2="280"/>
<line opacity="0.3" fill="none" stroke="#000000" stroke-width="0.25" stroke-miterlimit="10" x1="607.5" y1="260" x2="307.5" y2="260"/>
<line opacity="0.3" fill="none" stroke="#000000" stroke-width="0.25" stroke-miterlimit="10" x1="607.5" y1="240" x2="307.5" y2="240"/>
<line opacity="0.3" fill="none" stroke="#000000" stroke-width="0.25" stroke-miterlimit="10" x1="607.5" y1="220" x2="307.5" y2="220"/>
<line opacity="0.3" fill="none" stroke="#000000" stroke-width="0.25" stroke-miterlimit="10" x1="607.5" y1="200" x2="307.5" y2="200"/>
<line opacity="0.3" fill="none" stroke="#000000" stroke-width="0.25" stroke-miterlimit="10" x1="607.5" y1="180" x2="307.5" y2="180"/>
<line opacity="0.3" fill="none" stroke="#000000" stroke-width="0.25" stroke-miterlimit="10" x1="607.5" y1="160" x2="307.5" y2="160"/>
<line opacity="0.3" fill="none" stroke="#000000" stroke-width="0.25" stroke-miterlimit="10" x1="607.5" y1="140" x2="307.5" y2="140"/>
<line opacity="0.3" fill="none" stroke="#000000" stroke-width="0.25" stroke-miterlimit="10" x1="607.5" y1="120" x2="307.5" y2="120"/>
<line opacity="0.3" fill="none" stroke="#000000" stroke-width="0.25" stroke-miterlimit="10" x1="607.5" y1="100" x2="307.5" y2="100"/>
<line opacity="0.3" fill="none" stroke="#000000" stroke-width="0.25" stroke-miterlimit="10" x1="607.5" y1="80" x2="307.5" y2="80"/>
<line opacity="0.3" fill="none" stroke="#000000" stroke-width="0.25" stroke-miterlimit="10" x1="607.5" y1="60" x2="307.5" y2="60"/>
<line fill="none" stroke="#000000" stroke-miterlimit="10" x1="307.5" y1="500" x2="607.5" y2="500"/>
<line fill="none" stroke="#000000" stroke-miterlimit="10" x1="307.5" y1="500" x2="307.5" y2="50"/>
<line fill="none" stroke="#000000" stroke-miterlimit="10" x1="607.5" y1="500" x2="607.5" y2="50"/>
<line fill="none" stroke="#000000" stroke-miterlimit="10" stroke-opacity="0.2" x1="407.5" y1="500" x2="407.5" y2="50"/>
<line fill="none" stroke="#000000" stroke-miterlimit="10" stroke-opacity="0.2" x1="507.5" y1="500" x2="507.5" y2="50"/>
<text transform="matrix(1 0 0 1 287.4382 501.9998)" font-family="'ArialMT'" font-size="10">0</text>
<line fill="none" stroke="#000000" stroke-miterlimit="10" x1="307.5" y1="500" x2="297.5" y2="500"/>
<line fill="none" stroke="#000000" stroke-miterlimit="10" x1="307.5" y1="480" x2="297.5" y2="480"/>
<text transform="matrix(1 0 0 1 270.7537 461.9998)" font-family="'ArialMT'" font-size="10">4000</text>
<line fill="none" stroke="#000000" stroke-miterlimit="10" x1="307.5" y1="460" x2="297.5" y2="460"/>
<line fill="none" stroke="#000000" stroke-miterlimit="10" x1="307.5" y1="440" x2="297.5" y2="440"/>
<text transform="matrix(1 0 0 1 270.7537 421.9998)" font-family="'ArialMT'" font-size="10">8000</text>
<line fill="none" stroke="#000000" stroke-miterlimit="10" x1="307.5" y1="420" x2="297.5" y2="420"/>
<line fill="none" stroke="#000000" stroke-miterlimit="10" x1="307.5" y1="400" x2="297.5" y2="400"/>
<text transform="matrix(1 0 0 1 265.1921 381.9998)" font-family="'ArialMT'" font-size="10">12000</text>
<line fill="none" stroke="#000000" stroke-miterlimit="10" x1="307.5" y1="380" x2="297.5" y2="380"/>
<line fill="none" stroke="#000000" stroke-miterlimit="10" x1="307.5" y1="360" x2="297.5" y2="360"/>
<text transform="matrix(1 0 0 1 265.1921 341.9998)" font-family="'ArialMT'" font-size="10">16000</text>
<line fill="none" stroke="#000000" stroke-miterlimit="10" x1="307.5" y1="340" x2="297.5" y2="340"/>
<line fill="none" stroke="#000000" stroke-miterlimit="10" x1="307.5" y1="320" x2="297.5" y2="320"/>
<text transform="matrix(1 0 0 1 265.1921 301.9998)" font-family="'ArialMT'" font-size="10">20000</text>
<line fill="none" stroke="#000000" stroke-miterlimit="10" x1="307.5" y1="300" x2="297.5" y2="300"/>
<line fill="none" stroke="#000000" stroke-miterlimit="10" x1="307.5" y1="280" x2="297.5" y2="280"/>
<text transform="matrix(1 0 0 1 265.1921 261.9998)" font-family="'ArialMT'" font-size="10">24000</text>
<line fill="none" stroke="#000000" stroke-miterlimit="10" x1="307.5" y1="260" x2="297.5" y2="260"/>
<line fill="none" stroke="#000000" stroke-miterlimit="10" x1="307.5" y1="240" x2="297.5" y2="240"/>
<text transform="matrix(1 0 0 1 265.1921 221.9998)" font-family="'ArialMT'" font-size="10">28000</text>
<line fill="none" stroke="#000000" stroke-miterlimit="10" x1="307.5" y1="220" x2="297.5" y2="220"/>
<line fill="none" stroke="#000000" stroke-miterlimit="10" x1="307.5" y1="200" x2="297.5" y2="200"/>
<text transform="matrix(1 0 0 1 265.1921 181.9998)" font-family="'ArialMT'" font-size="10">32000</text>
<line fill="none" stroke="#000000" stroke-miterlimit="10" x1="307.5" y1="180" x2="297.5" y2="180"/>
<line fill="none" stroke="#000000" stroke-miterlimit="10" x1="307.5" y1="160" x2="297.5" y2="160"/>
<text transform="matrix(1 0 0 1 265.1921 141.9998)" font-family="'ArialMT'" font-size="10">36000</text>
<line fill="none" stroke="#000000" stroke-miterlimit="10" x1="307.5" y1="140" x2="297.5" y2="140"/>
<line fill="none" stroke="#000000" stroke-miterlimit="10" x1="307.5" y1="120" x2="297.5" y2="120"/>
<text transform="matrix(1 0 0 1 265.1921 101.9998)" font-family="'ArialMT'" font-size="10">40000</text>
<line fill="none" stroke="#000000" stroke-miterlimit="10" x1="307.5" y1="100" x2="297.5" y2="100"/>
<line fill="none" stroke="#000000" stroke-miterlimit="10" x1="307.5" y1="80" x2="297.5" y2="80"/>
<text transform="matrix(1 0 0 1 265.1921 61.9998)" font-family="'ArialMT'" font-size="10">44000</text>
<line fill="none" stroke="#000000" stroke-miterlimit="10" x1="307.5" y1="60" x2="297.5" y2="60"/>
<polyline opacity="0.3" fill="none" stroke="#FF0000" stroke-miterlimit="10" points="310,304.19 320,304.19 325,304.27 
	330,304.301 335,304.33 340,304.211 345,304.32 350,304.23 355,304.25 360,304.24 365,304.35 370,304.29 375,304.29 380,304.23 
	385,304.33 390,304.2 395,304.27 400,304.24 405,304.2 "/>
<polyline opacity="0.3" fill="none" stroke="#000000" stroke-miterlimit="10" points="310,138.37 320,138.22 325,138.85 330,137.09 
	335,138.68 340,135.46 345,138.18 350,137.57 355,138.59 360,138.12 365,137.69 370,137.48 375,139.57 380,137.57 385,137.07 
	390,135.39 395,127.91 400,137.74 405,137.65 "/>
<polyline opacity="0.3" fill="none" stroke="#008000" stroke-miterlimit="10" points="310,264.56 320,264.68 325,264.54 330,264.6 
	335,264.59 340,264.56 345,264.7 350,264.68 355,264.65 360,264.72 365,264.57 370,264.61 375,264.58 380,264.59 385,264.54 
	390,264.61 395,264.58 400,264.64 405,264.58 "/>
<polyline opacity="0.3" fill="none" stroke="#FF0000" stroke-miterlimit="10" points="410,419.08 420,419.89 425,421.29 430,421.45 
	435,421.29 440,421.65 445,421.01 450,421.56 455,421.74 460,420.82 465,421.81 470,421.7 475,421.86 480,422.19 485,420.89 
	490,422.091 495,421.99 500,421.57 505,421.06 "/>
<polyline opacity="0.3" fill="none" stroke="#000000" stroke-miterlimit="10" points="410,335.18 420,334.02 425,347.881 
	430,344.25 435,343.62 440,343.79 445,343.97 450,343.72 455,343.801 460,344.02 465,340.48 470,343.95 475,338.14 480,337.64 
	485,341.07 490,341.421 495,340.551 500,340.49 505,341.66 "/>
<polyline opacity="0.3" fill="none" stroke="#008000" stroke-miterlimit="10" points="410,410.52 420,408.08 425,406.86 430,409.7 
	435,407.89 440,409.37 445,406.77 450,412.18 455,412.091 460,413.56 465,413.62 470,413.65 475,413.53 480,413.5 485,413.47 
	490,413.6 495,413.58 500,413.43 505,413.6 "/>
<polyline opacity="0.3" fill="none" stroke="#FF0000" stroke-miterlimit="10" points="510,454.35 520,457.57 525,458.03 530,455.36 
	535,458.07 540,457.81 545,458.03 550,458.24 555,458.08 560,456.36 565,452.98 570,458.25 575,457.98 580,456.81 585,458.01 
	590,458.22 595,458.03 600,458.14 605,457.48 "/>
<polyline opacity="0.3" fill="none" stroke="#000000" stroke-miterlimit="10" points="510,431.57 520,423.39 525,431.37 
	530,431.381 535,426.671 540,431.08 545,431.18 550,431.56 555,425.53 560,429.51 565,431.27 570,425.29 575,424.28 580,431.52 
	585,431.62 590,431.551 595,430.801 600,431.58 605,431.631 "/>
<polyline opacity="0.3" fill="none" stroke="#008000" stroke-miterlimit="10" points="510,446.18 520,445.97 525,445.421 530,445.7 
	535,445.95 540,445.86 545,445.801 550,445.83 555,445.81 560,445.65 565,445.6 570,445.69 575,445.62 580,445.26 585,446.12 
	590,445.841 595,445.01 600,446.08 605,446.18 "/>
<polyline fill="none" stroke="#008000" stroke-width="5" stroke-linecap="round" stroke-linejoin="round" stroke-miterlimit="10" points="
	357.5,264.72 457.5,413.56 557.5,445.65 "/>
<polyline fill="none" stroke="#000000" stroke-width="6" stroke-linecap="round" stroke-linejoin="round" stroke-miterlimit="10" points="
	357.5,136.59 457.5,339.801 557.5,428.53 "/>
<polyline fill="none" stroke="#FF0000" stroke-width="5" stroke-linecap="round" stroke-linejoin="round" stroke-miterlimit="10" points="
	357.5,304.35 457.5,420.82 557.5,456.36 "/>
</svg>
